<svg xmlns="http://www.w3.org/2000/svg" width="40" height="67" fill="none"><path fill="#fff" fill-rule="evenodd" d="M35.413 7.57c-.724-.944-1.568-1.766-2.451-2.56-4.205-3.716-10.01-5.647-15.61-4.821l-.278.046C13.742.73 10.71 2.19 8.027 4.188l-.163.122c-2.17 1.62-4.062 3.967-5.299 6.368-.079.154-.158.309-.24.462C.75 14.033.038 17.342.026 20.616a200.05 200.05 0 0 1-.002 1.423l-.001 1.016a2093.896 2093.896 0 0 0-.005 3.395 6702.3 6702.3 0 0 0-.003 4.125v1.262C.014 33.19.012 34.546.01 35.9l-.005 4.2c0 .783 0 1.567-.002 2.352a586.61 586.61 0 0 0-.002 2.014V45.501c-.023 4.693 1.041 9.33 3.912 13.154.102.133.203.267.303.402.823 1.12 1.821 2.078 2.852 3.006l.225.198c2.738 2.41 6.241 3.953 9.843 4.458l.183.025c2.678.386 5.494.26 8.086-.552l.309-.1c2.079-.62 4.122-1.588 5.856-2.9l.257-.197c1.336-.965 2.524-2.156 3.564-3.432l.185-.236a20.926 20.926 0 0 0 2.79-4.715l.144-.339c.426-.968.729-1.949.958-2.982.035-.164.071-.327.108-.49.385-1.683.426-3.349.423-5.068V22.401c.004-2.377.004-4.8-.682-7.099a24.63 24.63 0 0 1-.12-.395 21.779 21.779 0 0 0-3.656-7.172l-.128-.165Zm-8.267 3.445-.128-.103c-2.44-1.987-5.886-2.801-8.972-2.251l-.238.05c-2.224.436-4.343 1.568-5.91 3.205l-.203.219c-1.16 1.224-2.162 2.625-2.715 4.23l-.057.17c-.654 1.95-.77 3.872-.763 5.913v.98c0 .643 0 1.285.002 1.927l.002 2.26c0 1.343 0 2.687.003 4.03l.003 3.919v1.22a6640.38 6640.38 0 0 0 .006 7.285v.992a468.283 468.283 0 0 0 .002 1.118v.136c0 .289 0 .578.004.867.092 2.894 1.449 5.95 3.54 7.949l.217.202c.95.912 1.962 1.573 3.128 2.17.61.313 1.213.627 1.771 1.027 1.92 1.525 2.774 3.5 3.148 5.87l.022.143h.082a8.965 8.965 0 0 1 .407-2.282c.737-2.059 2.246-3.607 4.167-4.595 1.531-.784 2.929-1.628 4.06-2.947l.168-.201c1.104-1.243 1.892-2.682 2.402-4.26l.064-.203c.508-1.57.504-3.195.499-4.826v-1.012c0-.663 0-1.325-.002-1.987l-.002-2.332-.003-4.158a3406.4 3406.4 0 0 1-.004-4.044v-1.258l-.002-3.878v-1.4l-.003-2.237v-.13a888.042 888.042 0 0 1-.002-1.842V20.404c.001-.381.002-.762-.03-1.141-.4-3.286-2.12-6.178-4.663-8.248Z" clip-rule="evenodd"/><path fill="#fff" d="m21.554 30.205.609.001 1.59.006c.543.003 1.086.004 1.628.005l3.186.012.002.428.002.241c-.036 1.995-1.159 3.906-2.531 5.281a8.21 8.21 0 0 1-2.7 1.691l-.175.07c-1.343.491-2.757.473-4.166.464l-.586-.002c-.509 0-1.018-.003-1.526-.005a1246.388 1246.388 0 0 1-4.621-.017l-.003-.428-.001-.24c.03-1.972 1.11-3.82 2.433-5.211 1.947-1.883 4.255-2.313 6.86-2.296Z"/></svg>