<svg xmlns="http://www.w3.org/2000/svg" width="135" height="198" fill="none"><path fill="#030303" d="M.5 1C9.958.907 19.416.836 28.875.793c4.393-.021 8.786-.05 13.179-.095C46.3.654 50.548.631 54.794.62 56.408.613 58.02.6 59.634.577 70.543.436 80.904.637 89.5 8.25c4.883 5.469 6.064 10.56 6 17.75l-3.453.012c-4.257.022-8.513.077-12.77.14-1.837.024-3.674.038-5.51.044-2.653.009-5.303.05-7.954.097l-2.46-.012c-5.97.15-10.298 1.782-14.853 5.719-2.8 4.724-3.657 8.557-3 14 1.423 4.987 2.676 8.08 7.03 11.105 4.336 2.39 8.19 2.416 13.052 2.329l5.264.029c2.731-.009 5.463-.026 8.194-.048 21.415-.118 21.415-.118 29.34 7.358 5.251 5.61 7.284 10.522 7.12 18.227l-2.338.011c-7.297.038-14.593.095-21.89.173-3.75.04-7.501.072-11.252.087-3.625.015-7.249.05-10.873.097-1.378.015-2.756.023-4.134.024-8.893.01-15.484.37-22.501 6.284-4.704 5.813-7.623 11.288-7.375 18.918.668 4.428 2.458 8.381 4.363 12.406l.883 2.168c1.41 2.313 2.683 2.695 5.117 3.832l1.913 1.056c6.596 3.37 12.49 3.455 19.794 3.342l7.404.016c3.851-.015 7.702-.039 11.552-.074 3.745-.027 7.487-.017 11.231-.004l3.439-.066c9.144.056 16.996 2.537 23.906 8.74 7.114 7.534 10.322 16.012 10.23 26.299-1.043 8.212-5.29 16.105-11.282 21.816-9.26 6.719-18.326 7.517-29.456 7.396-2.359-.021-4.715 0-7.075.026-9.027.018-15.68-.355-22.863-6.406C59.52 185.521 56.5 180.61 56.5 173l1.795-.018c6.165-.064 12.329-.148 18.493-.244 2.3-.034 4.602-.062 6.902-.084 3.307-.034 6.613-.086 9.92-.142l3.118-.02 2.912-.06 2.557-.033c2.855-.495 4.241-1.379 6.303-3.399.667-3.5.667-3.5 0-7-2.92-2.893-5.075-3.373-9.113-3.369l-3.087-.021-3.327.019-7.03-.053c-3.68-.01-7.358-.014-11.038-.012-19.84-.02-35.906-.67-51.218-14.876-9.085-9.76-13.79-21.591-13.52-34.846.584-14.565 5.443-25.328 15.38-36.076C27.5 71 27.5 71 29.5 71l-1.207-2.055c-7.064-12.408-10.33-24.559-6.793-38.882l1-3.063c-.64-.22-1.281-.438-1.941-.664-9.596-3.518-14.634-7.589-19.211-16.774C.365 6.592.442 4.112.5 1Z"/></svg>