<svg xmlns="http://www.w3.org/2000/svg" width="189" height="188" fill="none"><path fill="#020202" fill-rule="evenodd" d="M67.984 4.586 70.5 4c27.138-7.523 53.175-1.512 76.926 12.758 19.568 13.086 33.863 34.658 39.109 57.511 4.802 23.246 1.507 47.826-11.261 68.067L173.5 145c-10.413 16.433-25.219 28.363-42.963 36.123L128.5 182c-10.477 4.632-20.522 5.403-31.877 5.439l-2.248-.001c-.755 0-1.51.004-2.264.007-5.856.028-11.673.056-17.384-1.421L71.5 185c-9.325-2.4-17.612-5.888-25.984-10.586-20.629-12.093-35.921-33.418-42.188-56.391-5.11-23.67-2.198-48.781 9.943-69.78C25.552 27.72 44.295 10.625 67.984 4.585Zm26.204 30.039 3.244.003c7.793.117 13.966 1.025 21.068 4.372 10.833 4.904 20.828 3.328 32 0l-1.5 3.063c-4.535 12.509-.715 24.279 3.836 36.069 4.295 12.08 2.552 27.33-2.336 38.868l-1.215 3.035c-7.116 15.986-20.023 25.412-35.863 32.02-14.754 4.773-30.47 2.708-44.652-2.543-10.491-3.838-18.82-3.396-29.27.488l.656-1.984c3.803-12.465 2.753-21.457-2.148-33.254-5.783-14.096-4.637-29.843.71-43.985C46.304 54.451 59.09 43.89 75.5 37c6.231-2.271 12.133-2.385 18.688-2.375Z" clip-rule="evenodd"/></svg>