<svg xmlns="http://www.w3.org/2000/svg" width="190" height="111" fill="none"><path fill="#000" d="M65.625.875c1.496.01 2.992.02 4.488.027C73.743.924 77.371.96 81 1c1.513 3.026.628 5.285-.156 8.492C78.047 17.805 72.615 22.94 65 27c-3.427 1.142-6.595 1.427-10.188 1.813-9.545 1.2-15.248 3.545-21.335 11.132C28.536 46.82 27.835 53.75 29 62c2.848 8.184 6.394 13.41 14 17.688 7.505 3.283 14.804 2.93 22.504.41 6.524-2.87 11.096-7.623 13.7-14.235 1.255-4.513 2.012-9.111 2.67-13.747 1.17-7.842 4.454-13.444 10.064-19.053C94 32 94 32 96.374 32.375 102.038 35.881 106.367 41.501 108 48c.316 2.434.605 4.873.875 7.313 1.021 8.403 3.128 15.182 9.375 21.125 6.012 4.583 12.777 6.162 20.262 5.918 6.441-.92 11.703-4.052 16.488-8.356 5.523-7.848 7.398-15.527 6-25-2.075-7.995-7.013-13.591-14-17.812-3.697-1.392-7.534-1.669-11.438-2.125-8.244-.985-14.483-3.148-20.562-9.063-4.763-6.53-6.054-10.892-6-19a1412.6 1412.6 0 0 1 12.958-.165 563.67 563.67 0 0 0 4.389-.061c17.978-.315 34.047 2.935 47.524 15.816 11.307 12.8 16.189 27.01 15.512 44.07C188.348 75.507 180.684 87.99 170 98c-6.725 5.211-13.881 8.552-22 11l-1.82.582c-13.459 2.581-27.314-.141-39.035-7.078C103.126 99.686 99.549 96.381 96 93c-3.077 1.376-5.2 2.986-7.625 5.313-10.455 9.295-23.565 12.528-37.309 12.035C35.813 109.336 23.314 101.939 13 91 2.914 78.638-.448 63.607 1 48c1.773-12.913 8.266-25.29 18-34C33.833 2.947 47.573.663 65.625.875Z"/></svg>