<svg xmlns="http://www.w3.org/2000/svg" width="187" height="174" fill="none"><path fill="#010101" fill-rule="evenodd" d="m180.263.526-.864 1.923C175.235 11.3 171.738 16.18 162.5 20c-3.069.411-6.1.387-9.192.353l-2.748.007c-1.964.003-3.928 0-5.892-.01-3.127-.014-6.254-.008-9.381.004-8.889.031-17.778.027-26.668.006-5.447-.01-10.893.003-16.34.03a658.39 658.39 0 0 1-6.175-.012c-23.058-.154-44.5 4.147-61.599 20.556A336.723 336.723 0 0 0 20.5 45l-2.05 2.059C9.585 56.512 5.058 67.766 1.5 80l-.549 1.873C.19 85.465.24 89.175.288 92.856c.013.925.025 1.85.025 2.769l-.038 3.16c-.037 20.199 7.974 38.912 22.15 53.324 16.13 15.582 34.906 21.301 57.073 21.332 17.97-.411 33.795-8.599 47.002-20.441l1.926-1.641c12.911-11.753 20.793-30.184 22.074-47.359.271-6.978.208-13.963.146-20.945v-.005l-.021-2.362-.027-6.327c-.022-5.12-.057-10.24-.098-15.361l1.839.045 2.43.035 2.401.046c6.988-.377 15.211-5.694 20.33-10.313 4.921-5.508 7.654-11.441 9.031-17.876l.075-2.558c.275-7.407.411-11.071-.379-14.524-.773-3.383-2.436-6.562-5.727-12.855l-.237-.474ZM77.179 58.773h2.22c2.397 0 4.794.016 7.19.032 1.672.004 3.344.006 5.015.008 4.382.008 8.763.028 13.144.05 4.124.019 8.249.028 12.374.037l1.06.002c8.772.022 17.545.056 26.318.098-1.455.97-2.204 1.47-3.003 1.87-.849.424-1.755.736-3.622 1.38-10.236 3.782-16.737 10.142-21.449 19.856-2.196 5.048-2.864 9.953-3.426 15.394-1.273 12.316-5.371 22.676-15.125 30.75-9.482 6.56-20.078 7.957-31.375 6.75-9.093-2.099-16.914-7.687-22.313-15.25-6.167-10.17-8.541-20.187-5.992-31.96 3.092-10.316 8.996-18.399 18.282-23.977 6.72-3.53 13.078-5.066 20.702-5.04Z" clip-rule="evenodd"/></svg>