<svg xmlns="http://www.w3.org/2000/svg" width="182" height="175" fill="none"><path fill="#010101" d="M45.813 7.813C54.25 14.68 60.701 21.938 62.5 33c.089 2.261.125 4.524.126 6.787l.006 2.008c.004 1.433.006 2.867.006 4.3.004 3.066.025 6.133.045 9.2.038 5.697.07 11.394.068 17.092-.001 3.974.022 7.948.061 11.922.01 1.502.012 3.004.005 4.506-.062 13.314 2.525 24.665 11.437 35.025 8.55 8.222 17.874 10.57 29.345 10.526 11.288-.25 19.967-4.25 27.807-12.331 10.683-12.516 9.697-26.978 9.703-42.52.015-2.27.032-4.539.05-6.808.044-5.938.064-11.876.079-17.814.02-6.074.062-12.148.102-18.221.075-11.89.125-23.781.16-35.672 11.695-.196 21.259 4.628 29.641 12.55 7.089 7.502 10.463 17.057 10.52 27.215l.015 2.037c.015 2.221.022 4.442.027 6.663l.009 2.313c.015 4.048.024 8.096.028 12.144.006 4.149.03 8.297.058 12.446.019 3.216.024 6.433.026 9.65.003 1.527.01 3.054.024 4.58.19 23.592-7.487 44.798-23.782 62.027-13.626 12.61-30.821 21.416-49.566 22.375l-3.672.23c-21.047.911-39.622-6.234-55.328-20.23-.76-.665-1.519-1.33-2.3-2.016-12.425-11.587-22.844-29.738-23.952-46.878a292.842 292.842 0 0 1-.003-4.107l-.011-2.29c-.007-1.627-.01-3.253-.008-4.88 0-2.582-.012-5.165-.03-7.747-.045-7.338-.07-14.676-.077-22.015-.005-4.502-.03-9.005-.065-13.507-.01-1.706-.012-3.411-.007-5.117.031-10.583-.621-19.136-6.344-28.33-2.865-2.748-5.871-4.277-9.453-5.925l-1.969-.944A459.697 459.697 0 0 0 .5 9C12.659-4.336 31.84.167 45.813 7.813Z"/></svg>