<svg xmlns="http://www.w3.org/2000/svg" width="615" height="1261" fill="none"><path fill="#000" fill-rule="evenodd" d="M385 0v331l6 1c15.96 4.358 31.547 9.986 46.574 16.888a584.114 584.114 0 0 0 7.274 3.257c11.739 5.273 22.46 11.717 33.152 18.855l2.161 1.431c14.106 9.372 27.08 19.605 39.393 31.225 2 1.859 4.063 3.643 6.129 5.428l.008.007.184.159c3.408 3.011 6.414 6.189 9.344 9.664 1.195 1.4 2.425 2.77 3.687 4.11 7.749 8.239 14.395 17.383 21.037 26.521L561 451l1.808 2.465c4.267 5.933 7.811 12.063 11.192 18.535l1.684 3.158c1.786 3.357 3.553 6.723 5.316 10.092l.339.638.017.032 1.434 2.701c6.7 12.826 11.645 26.137 16.198 39.84a973.788 973.788 0 0 0 2.131 6.31c4.417 13.129 7.035 26.423 9.189 40.09.32 2.034.646 4.067.973 6.1.792 4.908 1.549 9.822 2.27 14.741.617 5.092.666 10.191.714 15.312l.008.822.038 3.457c.032 3.694.05 7.388.064 11.082l.015 3.797c.035 22.003-.304 44.755-7.39 65.828a67.367 67.367 0 0 0-.719 3.941C599.703 739.523 580.687 778.848 557 811l-1.268 1.723c-2.835 3.822-5.762 7.559-8.732 11.277l-2.262 2.887C531.48 843.22 515.994 858.604 499 871l-2.996 2.41c-20.576 16.54-44.916 29.694-69.48 39.223-3.546 1.376-7.03 2.863-10.524 4.367-6.721 2.714-13.587 4.805-20.563 6.75l-2.419.675c-4.156 1.137-5.311 1.453-6.484 1.541-.451.034-.905.034-1.534.034l.006 2.961c.044 23.849.077 47.698.098 71.549.01 11.53.024 23.07.047 34.6.02 10.06.033 20.12.037 30.18.003 5.32.009 10.64.023 15.96.014 5.02.018 10.04.015 15.06 0 1.83.005 3.66.012 5.49.066 16.16-.356 32.66-5.238 48.2l-.593 1.9c-5.365 16.84-13.102 31.76-23.407 46.1l-1.887 2.63c-24.205 31.82-62.23 53.57-101.67 59.08-6.917.81-13.864.78-20.818.73l-2.436-.01c-12.423-.06-24.224-.83-36.189-4.43l-2.047-.6c-4.38-1.31-8.664-2.82-12.953-4.4l-3.25-1.11c-11.81-4.22-25.111-10.72-34.75-18.89v-2l1.693-.3c2.584-.47 5.164-.96 7.744-1.45l2.663-.48c6.1-1.17 11.334-3.04 16.9-5.77l3.52-1.6c8.303-3.99 15.277-8.6 22.48-14.4l3.188-2.38c4.434-4.14 8.103-8.83 11.812-13.62l1.852-2.38c7.585-10.25 13.613-22.08 16.148-34.62l.483-2.13c1.27-5.83 1.81-11.31 1.795-17.27l.018-2.7c.017-2.95.02-5.9.023-8.85v-.01l.03-6.39c.028-5.76.043-11.52.056-17.28.014-5.56.038-11.12.062-16.68l.006-1.4c.046-11.41.083-22.81.116-34.21.039-12.99.088-25.98.138-38.96.104-26.709.193-53.414.273-80.12l-2.07-.403-2.72-.536-2.696-.528c-3.014-.639-5.88-1.514-8.791-2.521l-3.307-1.143-3.353-1.182-3.342-1.146c-7.106-2.478-13.92-5.327-20.721-8.541l-5.402-2.473c-16.695-7.764-32.805-16.5-47.598-27.527-1.265-.925-2.531-1.85-3.797-2.773-6.872-5.053-13.557-10.165-19.797-15.997a231.63 231.63 0 0 0-6.183-5.496c-4.27-3.723-8.293-7.655-12.286-11.672l-2.025-2.013c-17.2-17.234-31.422-37.182-43.759-58.11a245.956 245.956 0 0 0-3.005-4.892c-12.22-19.807-21.71-42.99-27.285-65.578-.872-3.506-1.885-6.947-2.925-10.407C-3.474 656.122-1.804 604.134 9 557l.637-2.796c5.287-22.685 13.688-44.51 24.328-65.191.67-1.304 1.337-2.609 2-3.916 9.046-17.82 20.331-33.967 32.908-49.468a533.279 533.279 0 0 0 4.069-5.091c5.421-6.793 11.225-13.016 17.387-19.127a874.513 874.513 0 0 0 4.612-4.626c6.362-6.37 12.975-12.214 20.059-17.785l2.1-1.69c30.226-24.26 64.359-42.007 101.377-53.232 2.26-.691 4.507-1.427 6.734-2.219 1.181-.364 1.862-.573 2.558-.694.948-.165 1.925-.165 4.231-.165l-.014-3.012c-.111-24.285-.193-48.569-.245-72.853-.026-11.744-.06-23.488-.118-35.232-.05-10.247-.082-20.493-.093-30.74a2933.37 2933.37 0 0 0-.059-16.248c-.285-43.744-.285-43.744 5.529-61.915l.739-2.406c9.321-30.16 28.132-57.897 53.323-77.031l2.241-1.706C299.908 24.92 306.696 20.824 314 17l2.832-1.57C331.646 7.515 347.412 3.063 364 1l2.957-.395c5.351-.631 10.45-.62 15.819-.608.736.001 1.477.003 2.224.003ZM232 496v265c-5.03-1.677-8.466-3.394-12.625-6.438l-1.837-1.33c-6.277-4.634-11.924-9.825-17.538-15.232l-2.324-2.098c-24.025-22.385-40.11-59.804-41.865-92.408a395.29 395.29 0 0 1-.061-11.369l.014-2.053c.039-4.692.127-9.381.236-14.072l.06-3.14c.6-22.073 8.364-44.162 19.565-63.11l1.31-2.217c4.185-6.944 8.89-13.301 14.065-19.533l2.242-2.707C198.597 519.091 204.56 514.039 211 509l2.64-2.164c9.9-8.108 12.393-10.149 15.169-10.663.934-.173 1.9-.173 3.191-.173Zm169.313 9.125c-4.931-3.685-9.717-6.327-15.313-9.125v265c32.453-16.227 56.073-47.496 67.693-81.475l.869-2.587c4.973-14.147 6.855-27.68 6.799-42.59a805.76 805.76 0 0 1-.045-8.226c.021-8.72-.044-17.335-1.222-25.985-6.042-36.537-27.344-71.372-56.826-93.562l-1.955-1.45Z" clip-rule="evenodd"/></svg>