<svg xmlns="http://www.w3.org/2000/svg" width="194" height="197" fill="none"><path fill="#020202" d="M52.481 7.44c6.377 4.926 10.944 12.043 15.456 18.622l1.784 2.573c1.262 1.823 2.523 3.647 3.782 5.472 2.805 4.063 5.625 8.114 8.445 12.166a6777.48 6777.48 0 0 1 4.134 5.948l1.922 2.767 1.809 2.608c1.523 2.17 3.082 4.31 4.652 6.447C96.5 67 96.5 67 96.5 69c3.558-3.28 6.197-7.003 8.875-11 .977-1.44 1.955-2.878 2.934-4.316l1.566-2.306c3.405-4.982 6.875-9.92 10.35-14.853 2.876-4.086 5.729-8.183 8.517-12.33C136.072 13.37 143.184 4.3 156.5 1c7.988-1.039 15.941-.099 23 4 1.305 2.14 1.305 2.14 2 4l-2.062 2.91a3871.072 3871.072 0 0 0-20.001 28.561 2379.254 2379.254 0 0 1-12.249 17.467c-4.246 5.996-8.457 12.014-12.586 18.09a352.188 352.188 0 0 1-7.305 10.355l-1.576 2.183c-1 1.384-2.015 2.758-3.045 4.12-2.63 3.56-2.63 3.56-2.789 7.81a214.322 214.322 0 0 0 6.738 9.879 7529.816 7529.816 0 0 1 5.033 7.036c3.277 4.607 6.494 9.256 9.717 13.901l4.082 5.868c2.651 3.812 5.293 7.63 7.93 11.453l3.675 5.304 1.658 2.418c7.452 11.267 7.452 11.267 18.78 17.645 5.418.371 10.752.553 16-1-2.126 8.504-7.303 14.233-14.645 18.746-9.083 4.835-16.887 5.348-26.793 2.816-13.004-4.405-19.597-15.298-26.931-26.162-2.847-4.189-5.778-8.32-8.693-12.463-3.431-4.888-6.845-9.785-10.2-14.726l-1.533-2.254a810.147 810.147 0 0 1-2.83-4.198c-2.177-3.42-2.177-3.42-5.375-5.759l-.84 1.76c-1.114 2.152-2.336 4.088-3.707 6.084l-1.54 2.248-1.663 2.408-1.731 2.518A3010.822 3010.822 0 0 1 67.5 172l-1.31 1.863C59.135 183.866 59.135 183.866 54.5 188l-2.375 2.125c-6.043 4.316-11.23 5.407-18.5 5.312l-2.398-.016c-5.67-.148-11.167-.706-15.727-4.421l-1-3a93.089 93.089 0 0 1 4.75-7.188 8285.42 8285.42 0 0 0 3.086-4.363l1.604-2.248c1.904-2.686 3.758-5.404 5.609-8.127 4.294-6.312 8.706-12.528 13.201-18.699 5.611-7.707 11.006-15.547 16.343-23.446 2.794-4.128 5.6-8.237 8.544-12.261l1.417-1.939a849.266 849.266 0 0 1 3.688-4.952c2.388-3.618 2.388-3.618 2.758-7.777-1.61-3.004-3.664-5.625-5.75-8.313a3023.644 3023.644 0 0 1-3.644-4.87l-1.855-2.461c-2.489-3.349-4.847-6.779-7.189-10.231a1970.9 1970.9 0 0 0-16.195-23.324 664.9 664.9 0 0 1-6.234-9.008l-2.57-3.73-2.184-3.215C26.215 27.462 22.213 24.082 16.5 23c-1.998-.092-4-.13-6-.125l-3.125-.008c-2.472.114-4.52.42-6.875 1.133 3.425-9.67 10.06-16.13 19-21C30.703-1.564 42.676.821 52.481 7.44Z"/></svg>