<svg xmlns="http://www.w3.org/2000/svg" width="288" height="492" fill="none"><path fill="#010101" fill-rule="evenodd" d="m184.15.687-2.962.063c-19.207.1-35.841 6.125-49.762 19.695-19.339 20.367-22.033 41.731-22.034 68.692.001 3.627-.015 7.254-.037 10.881-.044 6.862-.071 13.723-.084 20.585-.015 7.865-.047 15.729-.087 23.594-.083 16.262-.142 32.524-.179 48.786L109 195c-4.327-2.163-8.206-5.016-12-8-14.592-13.907-22.305-31.421-23.733-51.359-1.289-18.61-5.002-36.087-18.47-49.895L53 84l-2.437-2.625c-10.876-10.08-25.272-19.11-40.56-19.44l-3.241.023C4.842 61.97 2.92 61.983 1 62 .958 71.86.924 81.72.902 91.58L.9 92.811c-.01 4.631-.018 9.262-.037 13.894a4954.953 4954.953 0 0 0-.058 20.432c-.06 10.249-.117 20.2 1.687 30.32L3 160c5.205 27.605 19.132 55.727 39.805 75.059L45 237c17.672 16.052 38.11 30.428 62.177 34.543L110 272c-.045 19.207-.08 38.415-.101 57.622-.01 9.345-.021 18.689-.043 28.034-.02 8.202-.036 16.404-.043 24.606v1.287c-.002 3.911-.004 7.822-.016 11.733-.014 4.14-.025 8.28-.025 12.419.001 1.539.002 3.078.001 4.616-.021 4.034-.017 8.063.047 12.097.846 16.822 7.608 34.455 20.301 45.984L132 472c17.352 15.833 36.352 20.062 59.331 19.16 11.287-.676 24.977-5.582 32.669-14.16-10.202-1.999-19.678-6.287-27.492-13.207-11.339-12.216-13.956-25.699-13.943-41.99a674.11 674.11 0 0 0-.011-4.717c-.03-4.304-.05-8.608-.056-12.912-.007-4.565-.025-9.129-.049-13.694-.046-8.627-.079-17.254-.102-25.881-.027-9.894-.066-19.787-.111-29.681-.098-21.306-.175-42.612-.236-63.918h3c27.737-7.098 52.962-25.023 70.614-47.231L257 222c10.547-13.431 19.157-28.427 24.319-44.764L282 175c3.698-12.032 5.312-23.704 5.387-36.254-.025-41.067-12.475-77.86-41.824-107.496C229.049 15.018 208.201.56 184.15.687ZM215 117.5c-5.144-19.577-16.41-32.44-33-43.5v120c9.219-5.268 15.465-11.607 21.75-20.125 10.995-16.502 14.998-36.887 11.25-56.375Z" clip-rule="evenodd"/></svg>