<svg width="188" height="171" viewBox="0 0 188 171" fill="none" xmlns="http://www.w3.org/2000/svg">
<path d="M61.3398 6.51568C65.2416 10.1596 67.7699 14.477 70.5625 19.0001C71.486 20.4739 71.486 20.4739 72.4282 21.9776C76.8032 28.9878 81.0801 36.0561 85.3076 43.1561C89.5805 50.33 93.9357 57.4518 98.3125 64.5626C98.9704 65.6328 99.6283 66.703 100.306 67.8057C104.041 73.8675 107.836 79.8803 111.739 85.8357C113 88.0001 113 88.0001 113 90.0001C113.66 90.0001 114.32 90.0001 115 90.0001C115.362 89.1995 115.362 89.1995 115.73 88.3829C117.341 85.3593 119.304 82.6411 121.312 79.8751C121.749 79.2689 122.186 78.6627 122.635 78.0381C124.088 76.0234 125.544 74.0118 127 72.0001C128.032 70.5706 129.063 69.1409 130.094 67.711C132.824 63.9264 135.557 60.1442 138.292 56.3628C141.195 52.3468 144.098 48.3298 147 44.3125C147.528 43.5826 148.055 42.8527 148.599 42.1006C151.747 37.7437 154.88 33.3766 158 29.0001C157.078 29.0158 156.156 29.0315 155.205 29.0477C151.744 29.0992 148.284 29.1366 144.823 29.1648C143.332 29.1798 141.841 29.2002 140.351 29.2264C127.477 29.4465 118.803 28.6518 109.176 19.3985C103.661 13.3192 102.932 8.97557 103 1.00005C110.911 0.906922 118.822 0.836071 126.733 0.792803C130.408 0.772024 134.082 0.743889 137.756 0.698293C141.31 0.654482 144.862 0.630841 148.416 0.620542C150.415 0.609673 152.415 0.578505 154.414 0.546865C163.909 0.544553 171.717 1.7068 178.875 8.31255C185.303 15.3768 187.535 22.2646 187.387 31.7344C186.047 43.05 177.237 52.3226 170.498 61.0391C168.285 63.9369 166.168 66.8986 164.062 69.8751C163.246 71.0249 162.43 72.1746 161.613 73.3243C161.194 73.9151 160.774 74.506 160.342 75.1148C157.826 78.6493 155.288 82.1688 152.75 85.6876C152.214 86.4326 151.677 87.1777 151.124 87.9454C148.149 92.0669 145.141 96.1616 142.094 100.231C141.452 101.09 140.81 101.95 140.149 102.835C138.907 104.497 137.659 106.154 136.405 107.807C135.844 108.559 135.282 109.311 134.703 110.086C134.205 110.746 133.706 111.407 133.192 112.087C131.89 114.176 131.21 115.542 131 118C131.942 120.318 131.942 120.318 133.5 122.633C134.337 123.967 134.337 123.967 135.191 125.328C135.788 126.251 136.385 127.174 137 128.125C137.566 129.025 138.132 129.925 138.715 130.852C140.448 133.587 142.219 136.295 144 139C144.59 139.925 145.181 140.85 145.789 141.804C150.102 148.45 150.102 148.45 157 152C160.658 152.36 160.658 152.36 164.375 152.188C166.243 152.147 166.243 152.147 168.148 152.106C169.089 152.071 170.03 152.036 171 152C167.829 160.357 163.442 163.668 155.719 167.801C148.835 170.837 141.943 170.941 134.938 168.375C125.189 164.579 120.557 156.728 115.438 148.063C114.738 146.9 114.038 145.738 113.337 144.577C111.906 142.206 110.482 139.831 109.063 137.452C106.014 132.343 102.911 127.267 99.8125 122.188C99.2472 121.257 98.682 120.327 98.0996 119.369C93.0576 111.074 87.9574 102.815 82.8398 94.5665C82.3666 93.8022 81.8933 93.038 81.4058 92.2505C80.454 90.7269 79.4918 89.2098 78.52 87.6988C78.061 86.9822 77.6019 86.2657 77.1289 85.5274C76.7184 84.8944 76.3079 84.2614 75.885 83.6092C75 82.0001 75 82.0001 75 80.0001C72.1836 82.6994 69.8252 85.4502 67.5625 88.6251C66.8664 89.5957 66.1703 90.5664 65.4531 91.5665C65.0658 92.1093 64.6784 92.6522 64.2793 93.2115C62.3479 95.9117 60.4008 98.6005 58.4553 101.291C56.7852 103.6 55.117 105.911 53.4492 108.223C51.1418 111.42 48.8317 114.615 46.5195 117.809C45.9507 118.595 45.3818 119.381 44.7957 120.191C43.7235 121.673 42.6508 123.154 41.5774 124.635C37.6608 130.05 33.8205 135.517 30 141C30.8564 140.984 31.7128 140.969 32.5952 140.952C35.8195 140.901 39.0435 140.863 42.2681 140.835C43.6549 140.82 45.0416 140.8 46.4282 140.774C57.4456 140.571 67.3074 140.992 76.1758 148.188C81.5422 153.519 84.9768 159.025 85.0212 166.635C85.0142 167.746 85.0072 168.856 85 170C77.3671 170.093 69.7342 170.164 62.1008 170.207C58.5552 170.228 55.01 170.256 51.4646 170.302C47.3761 170.354 43.288 170.373 39.1992 170.391C37.9436 170.411 36.6879 170.432 35.3942 170.453C26.1216 170.456 18.5542 168.922 10.6875 163.875C4.88737 157.67 0.881794 150.89 0.75 142.313C0.724219 141.319 0.698438 140.325 0.671875 139.301C1.39034 132.073 4.65583 126.498 8.8125 120.688C9.28897 120.008 9.76544 119.329 10.2563 118.628C15.2128 111.603 20.3359 104.698 25.457 97.793C28.8605 93.1995 32.2197 88.5754 35.5625 83.9376C36.0867 83.2107 36.611 82.4838 37.1511 81.7349C39.9824 77.8067 42.8083 73.8746 45.6328 69.9415C46.2276 69.1146 46.8225 68.2878 47.4353 67.4358C48.5797 65.845 49.7225 64.2531 50.8635 62.66C51.3765 61.9472 51.8895 61.2344 52.418 60.5C52.8694 59.871 53.3208 59.2419 53.7859 58.5938C55 57 55 57 57 55C56.617 51.7557 55.1592 49.3143 53.4883 46.5508C52.9772 45.702 52.4661 44.8531 51.9395 43.9786C51.1341 42.6589 51.1341 42.6589 50.3125 41.3125C49.7949 40.4521 49.2774 39.5917 48.7441 38.7051C46.1628 34.4393 43.532 30.205 40.8281 26.0157C40.3695 25.3031 39.911 24.5906 39.4385 23.8565C36.8766 20.5502 34.038 18.9528 30 18.0001C25.6427 17.7049 21.3586 17.7609 17 18.0001C20.301 10.0226 24.8198 5.70128 32.6875 2.12505C42.9977 -1.26432 52.5086 0.795297 61.3398 6.51568Z" fill="#020202"/>
</svg>
