<svg xmlns="http://www.w3.org/2000/svg" width="146" height="195" fill="none"><path fill="#030303" d="m5.5 0 2 1 1.125 3.625C10.449 9.843 14.038 12.897 18.5 16c3.985 1.328 7.808 1.144 11.963 1.142l2.78.01c1.995.008 3.99.013 5.986.017 3.167.007 6.333.023 9.5.041 9.005.052 18.01.1 27.015.116 5.508.01 11.016.04 16.525.081 2.092.012 4.183.018 6.275.015 14.956-.012 27.49.057 38.823 11.062 4.958 5.848 8.248 12.774 8.273 20.479l.018 3.105.003 3.405.015 3.588c.012 3.25.02 6.5.024 9.751l.012 6.102c.013 6.372.023 12.744.027 19.116.004 7.338.022 14.677.051 22.015.022 5.682.032 11.363.033 17.045.001 3.389.007 6.777.025 10.165.017 3.789.015 7.577.008 11.366l.028 3.362c-.058 10.93-2.328 19.258-9.634 27.579-6.932 6.145-13.35 9.438-22.75 9.438v-82h-82c.237 18.548.237 18.548.54 37.095.018 2.348.033 4.697.046 7.046l.093 3.609c.006 9.627-2.403 17.482-8.923 24.753-5.63 5.442-11.027 8.568-18.894 8.52L.5 194a7732.634 7732.634 0 0 1-.207-33.903c-.021-5.249-.05-10.497-.095-15.745-.043-5.07-.067-10.141-.077-15.211a778.363 778.363 0 0 0-.044-5.786c-.14-13.018.024-23.609 9.43-33.601 7.468-6.574 15.903-9.07 25.66-8.981h2.575c2.791 0 5.583.016 8.375.032l5.826.008c5.1.008 10.2.028 15.299.05 5.208.02 10.417.03 15.625.04 10.211.02 20.422.056 30.633.097V50l-7.843.048c-8.574.05-17.147.082-25.72.107-5.197.016-10.392.037-15.588.071-5.018.033-10.037.05-15.055.059-1.91.005-3.82.016-5.73.032-2.686.022-5.37.025-8.056.024l-2.367.032C23.904 50.323 16.24 47.313 9.5 41 2.302 32.987-.074 26.269.133 15.527.653 10.537 2.219 6.434 4.5 2l1-2Z"/></svg>