<svg xmlns="http://www.w3.org/2000/svg" width="1440" height="394" fill="none"><path fill="#D35A35" d="M1439.88 1.244c-46.81-.02-93.71-.32-139.51-.62-58.2-.38-118.34-.77-177.59-.57l-33.25.11c-81.51.27-165.779.54-248.687.94-40.055.19-80.731.15-120.126.1-47.553-.06-96.699-.11-145.107.25-105.052.8-198.449 1.16-285.397 1.12-46.465-.02-93.669-.4-139.319-.77-49.456-.4-100.234-.8-150.818-.77v.91c50.506-.04 101.245.37 150.663.76 45.688.37 92.931.74 139.435.77h14.919c82.791 0 171.487-.37 270.634-1.12 48.33-.37 97.437-.31 144.951-.25 39.395.05 80.11.1 120.204-.1 82.908-.4 167.178-.68 248.688-.94l33.25-.11c59.13-.19 119.27.2 177.43.57 45.81.3 92.74.6 139.59.62v-.9h.04ZM1439.88 13.124c-46.58-.25-93.2-1.05-138.66-1.83-58.39-1.01-118.76-2.05-178.4-1.9-76.53.19-153.73 1.31-228.362 2.4-17.6.26-35.782.52-53.731.77-39.278.54-79.216.64-117.834.74-48.291.12-98.214.24-147.438 1.24-105.363 2.13-193.282 3.72-285.203 3.14-46.465-.3-93.552-1.29-139.085-2.25-49.457-1.04-100.235-2.11-151.052-2.31v1.15c50.584.19 101.245 1.26 150.585 2.3 45.611.96 92.815 1.96 139.435 2.25 13.093.08 26.069.12 39.045.12 78.479 0 156.141-1.43 246.702-3.26 49.03-.99 98.875-1.12 147.05-1.24 38.656-.1 78.673-.2 118.067-.74 17.949-.25 36.131-.51 53.731-.77 74.593-1.08 151.71-2.2 228.09-2.39 59.44-.15 119.7.89 177.98 1.9 45.57.79 92.31 1.59 139.04 1.83v-1.15h.04ZM1439.88 24.864c-46.46-.61-92.77-2.04-137.96-3.44-58.43-1.82-118.88-3.69-179.06-3.76-71.37-.08-142.543 2.01-211.347 4.03-23.233.68-47.204 1.38-70.98 2-38.696 1-78.012 1.37-116.008 1.73-48.913.46-99.497.94-149.304 2.76l-21.173.78c-89.629 3.3-174.323 6.42-263.641 5.02-46.621-.73-93.474-2.51-138.813-4.23-49.457-1.87-100.235-3.8-151.518-4.4v1.4c50.817.6 101.362 2.52 150.508 4.38 45.455 1.72 92.503 3.51 139.357 4.24 14.841.23 29.604.34 44.367.34 74.866 0 148.76-2.72 220.633-5.37l21.174-.78c49.496-1.81 99.885-2.28 148.604-2.74 38.112-.36 77.546-.73 116.435-1.74 23.777-.61 47.825-1.32 71.058-2 68.61-2.01 139.548-4.09 210.568-4.01 59.79.06 120.05 1.93 178.29 3.74 45.41 1.41 91.96 2.85 138.73 3.46v-1.41h.08Z"/><path fill="#D35A35" d="M1439.88 36.524c-46.46-1.04-92.46-3.18-137.33-5.28-58.36-2.72-118.73-5.54-179.61-5.92-70.55-.43-140.136 2.82-207.425 5.97-24.632 1.15-50.079 2.34-75.215 3.33-42.775 1.69-84.151 2.11-127.935 2.56l-6.489.07c-45.571.47-89.9 2.62-130.965 4.87-11.111.61-22.339 1.24-33.217 1.85-81.121 4.57-164.999 9.29-251.053 6.95-46.777-1.27-93.32-3.92-138.309-6.48-49.457-2.81-100.235-5.7-152.217-6.82v1.65c51.244 1.11 101.556 3.97 150.508 6.76 45.222 2.57 91.959 5.23 139.163 6.51 16.006.43 31.896.63 47.747.63 70.475 0 139.086-3.86 205.831-7.62 10.878-.61 22.106-1.24 33.179-1.85 40.754-2.23 84.655-4.36 129.644-4.83l6.488-.07c44.018-.45 85.627-.88 128.829-2.58 25.214-1 50.739-2.19 75.409-3.34 66.94-3.13 136.097-6.37 205.827-5.94 60.3.37 120.32 3.17 178.41 5.88 45.3 2.11 91.72 4.28 138.73 5.32v-1.62Z"/><path fill="#D35A35" d="M1439.88 48.174c-46.54-1.49-92.23-4.36-136.79-7.16-58.16-3.65-118.31-7.43-180.04-8.15-70.51-.82-139.9 3.68-206.995 8.03-24.981 1.62-50.856 3.3-76.07 4.64-41.259 2.21-81.198 2.91-123.467 3.66-3.613.06-7.188.13-10.801.19-45.688.82-90.055 3.73-131.237 6.76-12.937.95-26.03 1.95-38.734 2.93-78.673 6.03-160.026 12.26-244.837 8.96-47.01-1.83-93.086-5.36-137.648-8.78-49.418-3.79-100.235-7.68-153.11-9.32v1.91c51.826 1.65 101.866 5.48 150.546 9.21 44.872 3.44 91.26 6.99 138.852 8.85 16.783.65 33.412.95 49.923.95 68.649 0 134.618-5.06 198.838-9.98 12.665-.97 25.758-1.97 38.656-2.92 40.716-2.99 84.539-5.87 129.412-6.67 3.613-.07 7.226-.13 10.8-.19 42.581-.76 82.791-1.47 124.672-3.71 25.408-1.36 51.361-3.04 76.458-4.67 66.474-4.31 135.202-8.76 204.392-7.96 60.84.7 120.56 4.46 178.33 8.08 45.18 2.84 91.53 5.74 138.93 7.24v-1.9h-.08Z"/><path fill="#D35A35" d="M1439.88 59.864c-46.74-1.9-92.11-5.44-136.4-8.9-57.85-4.53-117.72-9.2-180.35-10.21-70.94-1.14-140.598 4.54-207.965 10.03-24.942 2.03-50.7 4.13-75.565 5.79-40.56 2.7-79.799 3.64-121.33 4.64-4.235.1-8.47.2-12.782.31-45.961 1.13-90.406 4.75-131.51 8.5-13.559 1.23-27.351 2.56-40.715 3.84-77.43 7.43-157.501 15.12-242.118 10.92-47.203-2.34-92.814-6.69-136.909-10.9-49.418-4.71-100.157-9.56-154.16-11.68v2.17c52.449 2.12 102.216 6.87 150.624 11.49 44.484 4.24 90.483 8.63 138.503 11.01 17.366.86 34.499 1.24 51.399 1.24 68.261 0 133.064-6.22 196.196-12.28 13.326-1.28 27.118-2.6 40.56-3.83 40.522-3.69 84.229-7.27 129.101-8.37 4.274-.1 8.508-.21 12.743-.31 41.959-1.01 81.586-1.96 122.924-4.71 25.136-1.67 51.049-3.78 76.108-5.82 66.473-5.42 135.236-11.02 204.276-9.91 61.46.99 120.71 5.62 178.01 10.11 45.15 3.53 91.42 7.14 139.36 9.05v-2.18Z"/><path fill="#D35A35" d="M1439.88 71.684c-46.97-2.2-92.11-6.32-136.13-10.35-57.54-5.26-116.98-10.7-180.5-11.88-71.84-1.33-141.728 5.31-209.289 11.73-25.836 2.46-50.273 4.78-74.71 6.66-40.521 3.13-79.722 4.22-121.175 5.37-4.196.12-8.431.23-12.705.36-43.551 1.23-84.189 4.85-131.82 9.89-13.714 1.45-27.739 3.03-41.298 4.55-76.614 8.6-155.83 17.48-240.797 12.6-47.397-2.73-92.503-7.77-136.132-12.64-49.38-5.51-100.119-11.18-155.209-13.64v2.43c53.11 2.46 102.566 7.98 150.741 13.35 44.095 4.92 89.706 10.02 138.153 12.8 17.755 1.02 35.16 1.47 52.332 1.47 68.532 0 132.83-7.21 195.457-14.24 13.52-1.52 27.507-3.09 41.104-4.53 46.777-4.96 86.56-8.5 128.79-9.7 4.274-.12 8.47-.24 12.666-.35 41.997-1.17 81.664-2.27 123.195-5.48 24.787-1.91 49.34-4.25 75.37-6.72 66.435-6.31 135.157-12.84 204.547-11.55 62.01 1.15 120.75 6.52 177.55 11.72 45.11 4.13 91.38 8.35 139.9 10.56v-2.41h-.04Z"/><path fill="#D35A35" d="M1439.88 83.684c-47.24-2.33-92.15-6.87-136.01-11.31-57.19-5.79-116.32-11.77-180.62-12.91-73.43-1.3-143.01 5.9-210.261 12.87-25.563 2.65-49.729 5.15-74.049 7.21-41.182 3.48-80.848 4.57-122.807 5.71-3.574.1-7.149.2-10.8.3-48.603 1.35-93.708 6.24-132.209 10.73-13.481 1.57-27.273 3.27-40.638 4.92-76.109 9.39-154.859 19.1-240.835 13.84-47.515-2.91-92.232-8.44-135.434-13.78-49.34-6.1-100.08-12.37-156.102-14.93v2.68c53.653 2.55 102.838 8.64 150.741 14.57 43.823 5.42 89.084 11.02 137.881 14.01 17.91 1.1 35.471 1.58 52.681 1.58 69.543 0 133.802-7.93 196.39-15.64 13.287-1.64 27.079-3.34 40.405-4.89 37.608-4.38 81.664-9.17 128.44-10.46 3.614-.1 7.227-.2 10.762-.3 42.658-1.17 82.946-2.27 125.371-5.86 24.709-2.09 50.195-4.73 74.827-7.28 65.968-6.83 134.227-13.9 204.777-12.65 62.36 1.11 120.6 7 176.93 12.7 45.11 4.57 91.42 9.25 140.56 11.59v-2.7Z"/><path fill="#D35A35" d="M1439.88 95.704c-47.16-2.33-91.99-6.91-135.74-11.38-57.19-5.85-116.36-11.9-180.85-13.01-73.12-1.25-142.893 5.9-210.377 12.82-25.641 2.63-49.845 5.11-74.166 7.15-45.183 3.79-88.074 4.86-133.452 6-48.757 1.22-93.941 6.25-132.519 10.86-13.171 1.58-26.691 3.28-39.706 4.93-75.875 9.58-154.315 19.5-241.34 14.17-47.476-2.91-92.115-8.48-135.239-13.88-49.379-6.17-100.196-12.52-156.452-15.06v2.93c53.614 2.54 102.721 8.68 150.546 14.66 43.785 5.47 89.085 11.13 137.998 14.13a869.953 869.953 0 0 0 53.187 1.6c70.358 0 134.656-8.12 197.244-16.03 12.977-1.64 26.419-3.34 39.473-4.9 37.568-4.5 81.508-9.39 128.129-10.56 46.155-1.16 89.706-2.25 136.327-6.16 24.709-2.07 50.273-4.69 74.982-7.22 66.085-6.78 134.425-13.78 204.435-12.58 62.35 1.07 120.47 7.02 176.73 12.77 45.18 4.62 91.49 9.35 140.75 11.69v-2.93h.04Z"/><path fill="#D35A35" d="M1439.88 107.694c-46.74-2.23-91.61-6.4-135.35-10.48-57.62-5.37-117.22-10.92-181.13-12.1-50.54-.93-103.88 2.99-146.734 6.14-20.747 1.53-41.609 3.21-61.773 4.84-24.787 2-50.428 4.07-75.914 5.85-43.396 3.03-84.462 4.22-133.646 5.46-48.836 1.23-94.097 6.22-132.675 10.8-13.093 1.55-26.38 3.21-39.24 4.81-75.642 9.44-153.848 19.21-241.534 14.09-47.243-2.76-92.232-7.87-135.744-12.82-49.535-5.63-100.468-11.42-156.025-13.92v3.18c52.915 2.49 102.139 8.08 150.08 13.53 44.135 5.02 89.745 10.21 138.386 13.05a906.093 906.093 0 0 0 52.76 1.52c71.213 0 135.705-8.05 198.488-15.89 12.782-1.6 26.03-3.25 38.967-4.78 37.53-4.45 81.431-9.3 127.974-10.47 49.884-1.26 91.571-2.47 136.094-5.58 25.758-1.8 51.555-3.88 76.458-5.89 20.086-1.62 40.871-3.3 61.423-4.81 41.725-3.07 93.665-6.89 141.575-6.01 61.89 1.14 120.47 6.6 177.16 11.89 45.22 4.21 91.61 8.53 140.4 10.78v-3.19Z"/><path fill="#D35A35" d="M1439.88 119.864c-46.39-1.95-91.41-5.56-135.31-9.09-58.05-4.66-118.03-9.48-181.2-10.52-45.85-.75-92.74 1.63-138.08 3.94l-8.158.41c-20.591 1.04-41.454 2.19-61.579 3.3-24.903 1.37-50.7 2.79-76.147 4.02-35.665 1.72-70.32 2.53-106.995 3.39-8.897.21-18.065.42-27.156.65-48.913 1.22-94.213 6.15-132.831 10.67-12.665 1.48-25.447 3.05-37.84 4.56-79.061 9.67-153.732 18.81-242.817 14.27-47.009-2.4-92.426-6.84-136.366-11.15-49.69-4.87-100.74-9.87-155.325-12.05v3.42c52.138 2.18 101.556 7.02 149.653 11.73 44.523 4.36 90.6 8.87 138.891 11.34 17.017.87 33.606 1.26 49.807 1.26 73.505 0 139.124-8.03 202.956-15.84 12.315-1.51 25.058-3.06 37.607-4.53 37.491-4.39 81.353-9.17 127.819-10.32 9.052-.23 18.221-.44 27.079-.65 35.431-.83 72.107-1.69 108.51-3.44 25.641-1.24 51.516-2.66 76.535-4.04 20.086-1.11 40.832-2.25 61.346-3.28l8.158-.41c44.333-2.26 90.173-4.59 133.923-3.87 61.22 1 120.32 5.75 177.47 10.34 45.3 3.64 91.8 7.37 140.09 9.33v-3.44h-.04Z"/><path fill="#D35A35" d="M1439.89 132.184c-46.16-1.55-91.46-4.5-135.67-7.38-58.35-3.8-118.69-7.73-181.01-8.49-66.51-.81-134.885 1.14-201.009 3.04-27.04.77-55.012 1.57-82.052 2.16-20.98.45-42.503.69-63.327.91-23.505.26-47.825.52-71.602 1.1-48.99 1.19-94.329 6.04-132.985 10.49a6545.848 6545.848 0 0 0-40.755 4.86c-31.508 3.82-64.103 7.76-97.67 10.75-47.398 4.22-92.582 5.24-142.194 3.23-46.737-1.9-92.62-5.54-136.987-9.07-49.768-3.95-100.895-8.01-154.432-9.74v3.65c51.4 1.72 101.051 5.66 149.381 9.5 44.95 3.57 91.416 7.26 139.357 9.21 16.862.68 33.451 1.03 49.846 1.03 34.033 0 67.289-1.48 100.662-4.44 34.422-3.06 67.406-7.06 99.302-10.92 13.248-1.6 26.924-3.26 40.483-4.82 37.452-4.31 81.275-9.01 127.663-10.13 23.349-.57 47.437-.83 70.747-1.08 21.018-.23 42.736-.47 64.065-.93 27.312-.59 55.401-1.39 82.557-2.17 65.464-1.87 133.14-3.81 198.29-3.01 60.57.74 120.05 4.62 177.59 8.36 45.42 2.96 92.04 5.99 139.86 7.55v-3.66h-.11Z"/><path fill="#D35A35" d="M1439.88 144.554c-46.08-1.11-91.76-3.34-136.29-5.52-58.54-2.87-119.07-5.84-180.5-6.26-39.82-.28-80.3-.53-119.46-.78-53.267-.34-108.357-.69-162.476-1.1-10.8-.08-21.95-.21-32.751-.33-34.033-.38-69.232-.77-103.265.02-49.068 1.15-94.446 5.92-133.141 10.3-13.714 1.55-27.468 3.19-40.793 4.77-31.508 3.75-64.104 7.63-97.632 10.56-45.028 3.93-90.289 5.06-142.388 3.56-46.504-1.34-92.814-4.11-137.609-6.79-49.768-2.98-100.934-6.03-153.499-7.22v3.88c50.817 1.19 100.74 4.17 149.342 7.08 45.3 2.71 92.154 5.51 139.746 6.88 15.463.45 30.381.67 44.873.67 36.946 0 71.252-1.46 105.479-4.45 34.422-3 67.445-6.93 99.341-10.73 13.248-1.58 26.924-3.21 40.483-4.74 37.413-4.23 81.159-8.84 127.508-9.93 32.751-.77 67.328-.38 100.778-.01 10.839.12 22.067.25 32.984.33 54.197.41 109.287.76 162.59 1.1 39.12.25 79.61.5 119.39.78 59.91.42 119.7 3.35 177.55 6.18 45.57 2.23 92.27 4.52 139.74 5.63v-3.88Z"/><path fill="#D35A35" d="M1439.88 156.924c-46.19-.67-92.31-2.19-137.3-3.68-58.54-1.94-119.07-3.95-179.68-4.07-68.88-.13-138.115-3.02-205.054-5.81-24.748-1.03-50.351-2.1-75.604-3.02-4.157-.15-8.353-.31-12.587-.46-40.988-1.51-83.374-3.08-124.517-2.15-49.146 1.11-94.562 5.8-133.297 10.11-13.714 1.52-27.467 3.13-40.793 4.69-31.508 3.69-64.103 7.5-97.554 10.36-42.075 3.61-87.414 4.84-142.621 3.89-46.348-.8-93.008-2.69-138.191-4.53-49.729-2.02-100.818-4.09-152.606-4.76v4.11c50.467.67 100.662 2.71 149.536 4.69 45.572 1.85 92.698 3.76 139.902 4.58 12.393.21 24.32.32 35.859.32 42.269 0 79.216-1.45 114.26-4.45 34.421-2.95 67.444-6.81 99.419-10.55 13.248-1.55 26.923-3.15 40.482-4.66 37.374-4.16 81.081-8.68 127.352-9.72 38.851-.88 80.111.64 120.01 2.12 4.235.16 8.47.31 12.627.46 25.058.91 50.544 1.97 75.215 3 67.677 2.82 137.652 5.74 208.042 5.88 59.41.11 119.35 2.1 177.32 4.03 45.72 1.52 92.58 3.07 139.82 3.73v-4.11h-.04Z"/><path fill="#D35A35" d="M1439.88 169.224c-46.5-.29-93.12-1.17-138.58-2.04-58.35-1.11-118.69-2.26-178.52-2.15-68.96.13-137.218-4.86-203.225-9.68-24.981-1.82-50.817-3.71-76.225-5.29-40.521-2.51-90.949-5.63-138.192-4.59-49.223 1.08-94.679 5.7-133.452 9.94-13.714 1.5-27.467 3.08-40.793 4.62-31.508 3.63-64.104 7.37-97.515 10.19-50.04 4.22-100.274 4.46-142.854 4.14-46.271-.35-93.203-1.44-138.619-2.5-49.651-1.16-100.623-2.35-151.79-2.59v4.35c50.312.24 100.779 1.42 149.886 2.57 45.727 1.07 93.009 2.17 139.901 2.52 8.004.06 16.279.1 24.787.1 38.54 0 81.625-.84 125.099-4.5 34.383-2.9 67.484-6.7 99.458-10.38 13.248-1.52 26.923-3.1 40.482-4.58 37.336-4.08 81.004-8.53 127.197-9.54 43.902-.97 92.504 2.04 131.549 4.46 25.02 1.55 50.661 3.42 75.448 5.23 67.367 4.92 137.068 10.01 209.018 9.88 58.97-.11 118.88 1.03 176.85 2.13 45.92.87 92.97 1.77 140.13 2.05v-4.34h-.04Z"/><path fill="#D35A35" d="M1439.88 181.384c-47.01-.04-94.13-.4-140.13-.76-57.97-.45-117.91-.92-177.04-.73-70.56.22-138.195-6.34-203.62-12.69-24.515-2.38-49.884-4.84-74.904-6.9-44.717-3.67-92.503-6.92-139.124-5.91-49.263 1.07-94.796 5.63-133.608 9.82-13.714 1.48-27.506 3.04-40.832 4.56-31.507 3.58-64.103 7.28-97.476 10.05-48.214 4.01-97.049 4.29-142.97 4.24-46.31-.05-93.436-.5-139.008-.94-49.535-.48-100.39-.96-151.168-.95v4.6c50.35-.02 101.012.47 150.313.94 45.766.44 93.048.9 139.707.95h8.159c45.3 0 93.241-.5 141.611-4.52 34.382-2.86 67.483-6.62 99.496-10.25 13.248-1.5 26.924-3.06 40.482-4.52 46.272-5 85.589-8.51 127.042-9.41 42.775-.93 88.075 2.17 130.616 5.66 24.515 2.01 49.612 4.45 73.855 6.8 67.29 6.53 136.829 13.29 211.539 13.05 58.67-.18 118.34.28 176.11.73 46.2.36 93.52.72 140.84.76v-4.58h.11Z"/><path fill="#D35A35" d="M1439.88 193.334c-47.82.02-95.8-.02-142.62-.05-57.19-.04-116.28-.08-174.48-.03-73.31.06-136.635-6.9-203.691-14.28-24.127-2.65-49.108-5.4-74.322-7.75-37.568-3.51-87.414-7.38-139.784-6.23-44.368.98-85.549 4.62-133.724 9.77-13.715 1.47-27.507 3.02-40.832 4.52-31.508 3.55-64.104 7.21-97.399 9.96-45.999 3.8-90.056 4.12-142.854 4.14-46.426.02-93.63-.02-139.28-.07-49.456-.04-100.234-.09-150.818-.06v4.84c50.506-.03 101.284.01 150.702.06 38.54.03 78.206.07 117.601.07h21.795c52.954-.02 100.779-.37 149.847-4.42 34.383-2.84 67.523-6.57 99.536-10.17 13.248-1.49 26.923-3.03 40.482-4.48 46.232-4.95 85.51-8.43 126.925-9.35 47.864-1.06 94.601 2.6 129.956 5.9 24.631 2.3 49.301 5.01 73.155 7.63 65.93 7.25 134.115 14.75 211.735 14.75h.97c58.08-.05 117.18-.01 174.33.03 46.81.03 94.79.06 142.69.05v-4.83h.08Z"/><path fill="#D35A35" d="M1439.88 205.434c-47.09 0-94.33-.28-140.4-.57-57.89-.36-117.8-.73-176.81-.51-70.71.26-137.885-6.6-202.921-13.24-24.553-2.5-49.923-5.1-75.059-7.25-42.114-3.62-91.183-7.36-140.057-5.97-46.737 1.33-91.649 5.24-133.219 9.26a9612.794 9612.794 0 0 0-40.832 4.07c-31.663 3.2-64.376 6.51-97.515 9.07-49.263 3.8-95.495 4.12-142.466 4.12h-.427c-46.582 0-93.902.25-139.629.5-49.379.27-100.08.54-150.469.49v5.09c50.661.05 101.478-.23 150.974-.49 45.455-.24 92.426-.5 138.58-.5h.933c46.892 0 97.087-.35 149.419-4.39 34.072-2.63 67.251-5.99 99.38-9.23 13.287-1.34 27.002-2.73 40.522-4.04 40.132-3.88 83.295-7.65 127.43-8.91 43.979-1.25 90.017 2.28 129.722 5.69 24.515 2.11 49.574 4.66 73.816 7.14 65.891 6.73 133.998 13.68 207.808 13.68 1.44 0 2.88 0 4.32-.01 58.54-.22 118.22.15 175.87.51 45.96.28 93.01.57 140.06.57h.93v-5.08h.04Z"/><path fill="#D35A35" d="M1439.88 217.334c-46.5-.24-93.12-1.12-138.62-1.99-58.35-1.11-118.69-2.26-178.59-2.05-68.34.24-136.331-5.11-202.144-10.29-25.097-1.97-51.049-4.02-76.497-5.7-43.124-2.85-91.998-6.09-139.396-4.8-46.31 1.26-91.066 4.34-132.558 7.47-13.831 1.05-27.778 2.14-41.299 3.21-31.702 2.5-64.492 5.08-97.204 7.1-48.136 2.97-93.513 3.39-143.592 3.61-46.815.2-94.135.98-139.901 1.73-49.185.81-99.691 1.63-149.964 1.75v5.33c50.972-.12 101.983-.95 151.596-1.76 45.455-.74 92.503-1.51 138.735-1.72 51.633-.23 98.487-.67 149.109-3.79 33.489-2.07 66.629-4.68 98.72-7.2 13.442-1.06 27.351-2.15 41.026-3.19 40.327-3.05 83.801-6.04 128.091-7.24 42.774-1.16 89.317 1.92 130.344 4.63 24.903 1.65 50.583 3.67 75.409 5.62 67.639 5.32 137.605 10.82 209.875 10.57 58.78-.2 118.57.93 176.38 2.03 46.04.88 93.2 1.77 140.48 2.01v-5.33Z"/><path fill="#D35A35" d="M1439.88 229.034c-46.08-.67-92.04-2.33-136.91-3.96-58.58-2.12-119.19-4.31-180.11-4.34-67.72-.03-136.326-3.15-202.645-6.17-25.33-1.15-51.554-2.35-77.351-3.35-2.953-.12-5.944-.23-8.897-.35-42.153-1.65-85.782-3.37-128.945-2.55-45.922.87-90.484 2.8-131.782 4.76-13.831.66-27.856 1.35-41.415 2.02-31.857 1.57-64.803 3.19-97.321 4.47-38.501 1.51-75.914 1.91-115.542 2.33-9.635.1-19.58.21-29.448.33-47.126.58-94.407 2.04-140.135 3.46-48.913 1.51-99.147 3.07-149.303 3.53v5.59c51.555-.46 102.721-2.04 152.528-3.58 45.261-1.4 92.037-2.85 138.231-3.42 9.79-.12 19.697-.22 29.254-.33 38.579-.41 78.517-.83 118.456-2.4 33.023-1.3 66.201-2.93 98.292-4.52 13.52-.67 27.467-1.35 41.221-2.01 40.56-1.93 84.228-3.82 128.867-4.67 40.172-.76 82.247.89 122.963 2.49 2.991.12 5.983.23 8.935.35 25.447.99 51.516 2.18 76.691 3.32 67.445 3.07 137.186 6.25 207.266 6.28 59.09.03 118.77 2.19 176.46 4.28 45.92 1.66 93.01 3.36 140.64 4.04v-5.6Z"/><path fill="#D35A35" d="M1439.88 240.594c-45.8-1.22-91.1-3.76-135.28-6.24-58.58-3.29-119.15-6.69-181.39-7.1-35.47-.23-71.56-.52-106.49-.8-144.796-1.15-294.526-2.35-441.848-.11-13.831.21-27.662.43-41.493.65-31.974.5-64.997 1.03-97.515 1.44-19.192.24-38.851.34-57.887.44-29.177.15-59.325.31-89.007.97-47.515 1.06-94.679 3.32-140.251 5.49-48.525 2.32-98.409 4.7-148.643 5.61v5.85c52.37-.91 103.731-3.36 153.732-5.75 44.95-2.15 91.416-4.37 137.57-5.4 28.75-.64 58.432-.8 87.143-.94 19.231-.1 39.122-.2 58.703-.45 32.673-.41 65.813-.94 97.826-1.44 13.792-.22 27.623-.44 41.415-.65 146.078-2.22 295.148-1.03 439.325.12 34.96.28 71.09.57 106.64.8 59.6.39 118.85 3.72 176.19 6.94 45.92 2.58 93.01 5.21 141.22 6.44v-5.87h.04Z"/><path fill="#D35A35" d="M1439.88 252.124c-45.69-1.79-90.33-5.23-133.84-8.6-58.35-4.51-118.73-9.17-182.44-10.03-67.83-.91-137.027 1.44-203.967 3.71-26.458.9-53.808 1.83-80.227 2.52-95.689 2.5-186.483 1.41-262.669 0-21.135-.39-43.086-.9-64.298-1.4-74.011-1.73-150.507-3.51-224.091-1.08-47.98 1.59-94.912 4.66-140.251 7.63-48.136 3.15-97.592 6.39-147.982 7.78v6.12c53.42-1.4 104.975-4.77 155.131-8.06 44.523-2.92 90.6-5.93 136.832-7.46 70.397-2.33 145.302-.58 217.719 1.11 21.368.5 43.435 1.01 64.842 1.41 77.429 1.43 169.816 2.54 267.72-.02 26.846-.7 54.43-1.64 81.081-2.55 65.619-2.23 133.45-4.54 198.6-3.66 60.26.81 118.93 5.34 175.65 9.73 45.96 3.55 93.05 7.18 142.15 9v-6.15h.04Z"/><path fill="#D35A35" d="M1439.88 263.724c-44.95-2.27-87.88-6.47-132.63-10.84-57.97-5.67-117.92-11.54-183.26-12.81-48.53-.95-99.62 2.16-144.683 4.9l-4.118.25c-20.785 1.26-41.726 2.65-61.928 4-24.787 1.65-50.389 3.35-75.681 4.81-44.95 2.6-88.735 4.86-130.422 4.03-44.523-.88-88.113-2.89-128.557-4.94-16.744-.85-34.149-1.81-50.972-2.75-78.556-4.37-159.754-8.89-239.941-5.44-48.447 2.08-95.107 5.94-140.212 9.66-49.846 4.12-97.477 8.05-147.4 9.84v6.38c54.585-1.85 106.296-6.12 156.607-10.27 44.096-3.64 89.706-7.41 136.016-9.4 74.477-3.2 152.8 1.16 228.559 5.37 16.978.94 34.499 1.92 51.516 2.78 41.376 2.09 86.015 4.15 132.053 5.06 6.799.13 13.559.2 20.397.2 39.2 0 78.711-2.07 118.961-4.4 25.796-1.49 51.632-3.21 76.613-4.87 20.086-1.33 40.871-2.72 61.345-3.96l4.119-.25c42.928-2.61 91.608-5.57 135.428-4.72 61 1.19 116.32 6.6 174.91 12.34 45.96 4.5 93.13 9.11 143.28 11.47v-6.44Z"/><path fill="#D35A35" d="M1439.88 275.444c-45.14-2.67-87.57-7.59-131.74-12.73-57.5-6.68-116.98-13.58-183.88-15.14-52.53-1.22-106.96 3.63-150.703 7.54-20.94 1.87-41.842 3.92-62.044 5.9-24.631 2.42-50.118 4.91-75.526 7.07-41.92 3.55-86.326 6.92-128.324 5.76-44.134-1.23-87.336-4.31-127.469-7.45-14.879-1.17-29.682-2.41-45.3-3.73-79.838-6.72-162.356-13.66-247.75-9.33-48.913 2.49-95.301 7.02-140.096 11.4-49.457 4.83-96.7 9.45-146.972 11.56v6.66c55.75-2.18 107.578-7.24 158.006-12.17 43.629-4.27 88.774-8.68 135.161-11.03 77.352-3.93 155.986 2.69 231.978 9.08 15.113 1.27 30.731 2.59 45.882 3.78 41.571 3.26 86.443 6.46 133.18 7.75 48.214 1.34 96.311-2.28 141.456-6.11 26.068-2.21 51.865-4.74 76.846-7.19 20.008-1.96 40.677-3.99 61.19-5.82 40.905-3.65 91.845-8.2 137.645-7.13 61.7 1.44 116.24 7.77 173.98 14.48 46 5.34 93.16 10.82 144.48 13.61v-6.76Z"/><path fill="#D35A35" d="M1439.88 287.384c-45.38-2.88-87.41-8.35-131.24-14.06-57.03-7.43-116.04-15.12-184.34-16.71-53.54-1.24-106.49 3.98-151.947 8.98-21.057 2.32-41.92 4.85-62.083 7.31-24.554 2.99-49.923 6.08-75.448 8.73-40.599 4.22-84.073 7.95-127.042 6.72-43.59-1.24-86.482-5.07-126.342-9.02-13.792-1.36-28.051-2.86-41.843-4.31-38.928-4.09-79.216-8.33-120.864-10.95-48.136-3.03-91.338-3.42-131.976-1.19-49.379 2.71-95.495 7.76-140.095 12.63-49.108 5.37-96.04 10.5-146.584 12.75v6.92c56.8-2.32 108.704-7.99 159.171-13.51 43.241-4.73 87.919-9.61 134.346-12.16 80.382-4.42 158.394 3.79 233.881 11.72 13.947 1.47 28.361 2.98 42.425 4.37 41.842 4.15 87.064 8.17 134.307 9.52 6.721.19 13.442.28 20.163.28 43.396 0 85.86-3.74 122.574-7.55 26.38-2.74 52.177-5.88 77.08-8.92 19.891-2.42 40.482-4.93 60.995-7.19 41.842-4.6 90.362-9.42 136.362-8.35 62.17 1.44 115.93 8.45 172.85 15.87 46.04 6 93.28 12.15 145.69 15.15v-7.03h-.04Z"/><path fill="#D35A35" d="M1439.88 299.484c-45.5-2.88-87.38-8.55-131.04-14.47-56.88-7.71-115.66-15.68-184.62-17.14-35.9-.76-73.59.78-115.23 4.71-35.863 3.38-70.207 8.07-103.425 12.61-24.748 3.38-48.136 6.57-71.252 9.13-34.033 3.76-79.178 7.94-126.731 6.81-40.793-.97-79.644-4.44-125.449-9.35-12.976-1.39-26.301-2.9-39.2-4.35-79.993-9.03-162.707-18.37-256.22-13.21-49.651 2.74-95.689 7.97-140.251 13.03-48.952 5.56-95.728 10.87-146.312 13.09v7.16c57.305-2.28 109.248-8.18 159.754-13.91 43.008-4.89 87.531-9.94 133.88-12.5 82.868-4.57 160.608 4.2 235.784 12.69 13.015 1.47 26.497 2.99 39.745 4.41 39.161 4.2 85.16 8.79 135.161 9.97 55.129 1.31 105.363-3.3 143.009-7.47 24.321-2.69 48.292-5.96 73.622-9.42 64.259-8.77 130.695-17.84 200.395-16.37 62.2 1.31 115.5 8.55 171.99 16.2 46.11 6.25 93.43 12.67 146.47 15.66v-7.28h-.08Z"/><path fill="#D35A35" d="M1439.88 311.394c-45.06-2.81-87.1-8.04-130.92-13.49-57.31-7.13-116.6-14.51-184.51-16.14-52.17-1.25-104.16 3.47-152.524 8.77-21.096 2.31-41.959 4.85-62.122 7.3-24.515 2.98-49.846 6.07-75.371 8.7-37.685 3.89-82.208 7.71-126.692 6.56-43.396-1.12-86.132-4.93-125.837-8.89-13.365-1.33-27.118-2.77-40.405-4.17-80.149-8.41-163.017-17.11-254.86-12.18-49.302 2.64-95.573 7.48-140.329 12.16-49.107 5.13-96.039 10.04-146.195 12.26v7.41c56.567-2.29 108.588-7.72 159.21-13.02 43.358-4.53 88.191-9.22 134.462-11.7 81.431-4.36 159.366 3.81 234.736 11.72 13.443 1.41 27.312 2.87 40.988 4.23 41.958 4.17 87.336 8.21 134.811 9.43 6.722.17 13.404.26 20.047.26 44.601 0 86.832-3.67 123.002-7.41 26.418-2.73 52.215-5.87 77.196-8.9 19.891-2.42 40.443-4.92 60.918-7.16 44.255-4.84 91.335-9.18 135.785-8.11 61.69 1.48 115.66 8.2 172.81 15.31 46.19 5.75 93.63 11.65 145.88 14.59v-7.53h-.08Z"/><path fill="#D35A35" d="M1439.88 323.574c-44.68-2.5-87.06-7.08-131.24-11.86-57.84-6.26-117.71-12.73-184.23-14.2-75.79-1.68-147.511 6.36-216.86 14.13-25.292 2.84-49.185 5.52-72.612 7.64-38.229 3.47-83.257 6.87-127.274 5.83-43.591-1.03-86.404-4.39-126.226-7.86-13.365-1.16-27.04-2.42-40.288-3.64-80.499-7.39-163.717-15.03-254.239-10.72-48.913 2.33-95.495 6.58-140.523 10.68-49.34 4.5-96.544 8.8-146.273 10.79v7.64c55.596-2.05 107.617-6.79 158.239-11.41 43.746-3.99 89.007-8.11 135.161-10.31 81.004-3.86 159.638 3.36 235.63 10.34 13.364 1.23 27.195 2.5 40.793 3.68 41.881 3.65 87.142 7.19 134.423 8.31 6.683.16 13.287.23 19.892.23 43.901 0 86.209-3.24 122.574-6.55 24.592-2.23 49.029-4.97 74.904-7.87 65.308-7.32 132.829-14.89 199.539-13.41 60.95 1.35 115.62 7.27 173.54 13.53 46.31 5.01 93.83 10.14 145.07 12.76v-7.73Z"/><path fill="#D35A35" d="M1439.88 335.944c-44.44-2.04-87.33-5.83-132.01-9.79-58.36-5.17-118.73-10.52-183.8-11.63-74.64-1.28-145.578 5.22-214.189 11.51-25.68 2.35-49.923 4.57-74.204 6.39-37.919 2.83-82.83 5.62-128.363 4.78-43.629-.81-86.676-3.58-126.653-6.46-12.976-.93-26.186-1.93-38.967-2.89-81.004-6.09-164.805-12.39-254.278-8.93-48.486 1.88-95.378 5.39-140.717 8.79-49.73 3.73-97.243 7.29-146.584 8.89v7.86c54.469-1.65 106.451-5.54 156.996-9.33 44.173-3.31 89.861-6.74 135.899-8.52 81.354-3.15 157.579 2.59 238.31 8.66 12.899.97 26.225 1.97 39.395 2.92 41.881 3.01 87.064 5.92 133.996 6.79 6.371.12 12.743.17 19.076.17 45.027 0 88.424-2.77 122.302-5.3 25.291-1.89 51.205-4.26 76.225-6.56 65.074-5.96 132.366-12.13 199.306-10.98 60.1 1.03 115.54 5.94 174.2 11.14 46.35 4.1 93.87 8.31 144.06 10.44v-7.95Z"/><path fill="#D35A35" d="M1439.88 348.424c-44.4-1.49-87.92-4.42-133.22-7.49-58.74-3.97-119.5-8.08-183.06-8.73-73.66-.76-144.021 4.06-212.009 8.72-24.593 1.69-50.04 3.43-74.866 4.84-79.41 4.53-158.705 4.12-256.997-1.31-11.616-.64-23.388-1.31-34.81-1.96-82.441-4.7-167.68-9.56-256.803-7.05-48.058 1.35-95.223 4.06-140.834 6.68-50.117 2.88-98.059 5.63-147.205 6.77v8.07c53.381-1.17 105.169-4.15 155.558-7.04 44.601-2.56 90.717-5.21 136.638-6.5 82.83-2.33 161.269 2.14 244.293 6.88 11.461.65 23.31 1.33 35.043 1.98 56.178 3.11 106.607 4.65 154.509 4.65 40.794 0 79.761-1.12 118.884-3.35 25.641-1.46 51.438-3.23 76.419-4.94 65.269-4.47 132.75-9.1 200.59-8.4 59.4.61 115.5 4.41 174.86 8.42 46.31 3.13 93.79 6.33 142.97 7.88v-8.12h.04Z"/><path fill="#D35A35" d="M1439.88 360.894c-45.41-.96-90.63-3.08-134.73-5.14-58.94-2.76-119.85-5.61-182.05-5.83-73.12-.26-143.869 2.95-212.324 6.06-23.854 1.08-48.524 2.2-72.883 3.15-79.45 3.11-161.813 2.81-259.29-.94-8.625-.33-17.211-.67-25.797-1-85.393-3.34-173.662-6.79-263.99-5.2-47.592.84-94.951 2.73-140.756 4.56-48.447 1.94-98.214 3.92-148.02 4.62v8.3c52.37-.7 103.925-2.75 154.081-4.76 44.95-1.8 91.454-3.65 137.376-4.46 85.937-1.51 168.223 1.7 255.288 5.1 8.624.34 17.249.67 25.874 1.01 101.478 3.91 187.649 4.21 271.139.94 24.825-.97 49.729-2.1 73.816-3.19 69.698-3.16 135.546-6.15 204.896-5.9 58.9.21 118.15 2.98 175.49 5.67 46.19 2.16 93.55 4.38 141.84 5.34v-8.33h.04Z"/><path fill="#D35A35" d="M1439.88 373.304c-45.76-.46-91.68-1.74-136.48-2.99-58.86-1.65-119.7-3.35-180.73-3.23-74.67.15-148.722 1.98-220.324 3.75-20.708.51-42.114 1.04-63.288 1.52-79.683 1.82-165.232 1.62-261.581-.6l-4.041-.09c-92.465-2.13-188.115-4.33-283.959-3.54-47.204.39-94.641 1.53-140.484 2.63-48.836 1.17-99.03 2.37-148.954 2.66v8.54c51.555-.29 102.838-1.51 152.722-2.71 45.261-1.08 92.037-2.21 138.036-2.59 93.359-.78 183.492 1.3 278.948 3.5l4.041.09c54.119 1.25 104.974 1.87 153.421 1.87 39.977 0 78.284-.42 115.425-1.27 21.329-.49 42.814-1.02 63.599-1.53 73.972-1.83 143.859-3.56 216.709-3.7 58.63-.11 118.3 1.56 175.99 3.17 46.04 1.29 93.28 2.6 140.91 3.06v-8.54h.04ZM1439.88 385.554c-46.31-.1-92.85-.69-138.27-1.26-58.55-.74-119.11-1.5-179.14-1.24-56.25.25-113.36.7-168.61 1.14-123.778.99-251.752 2.01-377.356.72-84.734-.88-185.046-1.75-286.485-1.56-46.854.09-94.252.6-140.096 1.1-49.185.53-99.69 1.08-149.847 1.1v8.78c50.972-.02 101.983-.57 151.634-1.11 45.456-.49 92.504-1 138.62-1.09 100.584-.18 200.236.68 284.503 1.55 127.08 1.31 255.832.28 380.348-.71 55.089-.44 112.049-.9 168.029-1.14 58.63-.26 118.49.5 176.34 1.23 45.96.58 93.09 1.17 140.33 1.27v-8.78Z"/></svg>